<svg id="fatguy-svg" xmlns="http://www.w3.org/2000/svg" width="406.31" height="426" viewbox="0 0 406.31 426">
  <defs>
    <style>
      .cls-1 {
        fill: none;
      }

      .cls-2 {
        fill: #464965;
      }

      .cls-3 {
        fill: #fff;
      }

      .cls-4 {
        fill: #ff6584;
      }
    </style>
  </defs>
  <path id="Path_43" data-name="Path 43" class="cls-1" d="M215.883,131.5v36.288s-39.15,1.182-49.854,39.714a180.23,180.23,0,0,1-5.548,17.2c-3.577,9.18-7.153,25.7,3.576,42.227l-36.168,49.108a61.024,61.024,0,0,0-11.625,17.927c-12.731,29.37,8.414,62.459,39.7,62.459h171.25a54.729,54.729,0,0,0,43.76-22.113,57.988,57.988,0,0,0,9.661-49.1c-5.9-22.993-14.716-48.868-27.857-73.326a52.56,52.56,0,0,1-6.271-23.013c-.627-18.153-9.42-53.567-66.322-64.993l2.146-59.758Z" transform="translate(19.525 25.115)"/>
  <path id="Path_44" data-name="Path 44" class="cls-2" d="M196.053,167.79c24.216-1.224,45.535-11.259,65.112-26.6l1.33-37.051L196.049,131.5Z" transform="translate(39.355 25.118)"/>
  <path id="Path_45" data-name="Path 45" class="cls-1" d="M162.874,7.1S184.139,29.625,247.32,31a22.443,22.443,0,0,1,21.359,18.924,328.714,328.714,0,0,1,3.712,86.34,24.02,24.02,0,0,1-21.85,21.94L193.61,162.6a35.424,35.424,0,0,1-29.923-12.739,37.62,37.62,0,0,1-7.747-32.316,93.518,93.518,0,0,1,14.747-33.12l-2.34-23.573S154.078,56.633,152.775,40.7l15.572.937S151.929,29.732,162.874,7.1Z" transform="translate(29.084 -1.222)"/>
  <path id="Path_46" data-name="Path 46" class="cls-1" d="M137.552,231.676c7.63-2.519,19.476-4.772,31.305-.449a8.519,8.519,0,0,1,4.84,4.635,8.875,8.875,0,0,1,.088,6.8l-3.227,8.037a40.1,40.1,0,0,1,14.677,12.5l-13.5,29.617A16.7,16.7,0,0,1,151.44,302c-9.961-3.194-23.273-8.362-33.682-15.657a20.588,20.588,0,0,1-7.995-22.431c1.83-6.4,5.636-14.394,13.351-22.784a34.319,34.319,0,0,1,14.437-9.448Z" transform="translate(18.695 58.956)"/>
  <path id="Path_47" data-name="Path 47" class="cls-3" d="M163.722,145.359c-29.624-39.161-75.136-36.92-75.136-36.92s-45.512-2.242-75.136,36.92a20.915,20.915,0,0,0-2.686,20.207l20.5,52.109H145.9l20.5-52.109A20.913,20.913,0,0,0,163.722,145.359Z" transform="translate(-4.971 26.28)"/>
  <ellipse id="Ellipse_57" data-name="Ellipse 57" class="cls-2" cx="12.532" cy="12.877" rx="12.532" ry="12.877" transform="translate(71.079 197.841)"/>
  <rect id="Rectangle_21" data-name="Rectangle 21" class="cls-4" width="15.434" height="8.9" rx="3.5" transform="translate(218.228 79.047)"/>
  <rect id="Rectangle_22" data-name="Rectangle 22" class="cls-4" width="15.434" height="8.9" rx="3.5" transform="translate(251 79.047)"/>
  <g id="mouth-svg" transform="translate(220.569 109.29)">
    <path id="Path_48" data-name="Path 48" class="cls-4" d="M225.922,90.594a4.266,4.266,0,0,0-5.939-1.526,21.465,21.465,0,0,0-7.2,7.13c-12.088-3.784-24.656-1.306-25.232-1.188a4.447,4.447,0,0,0-3.405,5.231,4.337,4.337,0,0,0,5.091,3.5c.116-.024,10.722-2.121,20.609.839a22.209,22.209,0,0,0,.495,8.75,4.314,4.314,0,0,0,5.381,3.006,4.471,4.471,0,0,0,2.926-5.529,12.621,12.621,0,0,1,5.79-14.105,4.441,4.441,0,0,0,1.976-2.737,4.556,4.556,0,0,0-.488-3.371Z" transform="translate(-184.059 -88.434)"/>
  </g>
  <path id="Path_49" data-name="Path 49" class="cls-2" d="M32.085,223.077h114.65a4.333,4.333,0,0,0,4.015-2.782l20.5-52.11a25.527,25.527,0,0,0-3.283-24.605c-29.932-39.573-74.666-38.8-78.551-38.642-3.9-.15-48.621-.932-78.557,38.642a25.534,25.534,0,0,0-3.283,24.605l20.5,52.11a4.333,4.333,0,0,0,4.013,2.782ZM17.7,149.042c27.821-36.78,71.077-35.229,71.509-35.205.134.006.273.006.408,0,.44-.011,43.692-1.577,71.519,35.205a16.4,16.4,0,0,1,2.091,15.808l-19.4,49.332H35L15.6,164.85a16.4,16.4,0,0,1,2.1-15.808Z" transform="translate(-5.801 25.328)"/>
  <path id="Path_50" data-name="Path 50" class="cls-2" d="M76.286,164.959a15.235,15.235,0,0,0-14.909,12.61,15.621,15.621,0,0,0,9.3,17.386,14.913,14.913,0,0,0,18.348-6.183A15.852,15.852,0,0,0,86.508,169.1l13.735-27.35a63.023,63.023,0,0,1,25.613,17.824,4.25,4.25,0,0,0,6.113.376,4.536,4.536,0,0,0,.366-6.282,71.469,71.469,0,0,0-28.088-19.887l2.086-4.155a4.51,4.51,0,0,0-1.863-6,4.275,4.275,0,0,0-5.835,1.914L78.729,165.182A14.619,14.619,0,0,0,76.286,164.959Zm0,22.066a6.586,6.586,0,1,1,6.4-6.582A6.5,6.5,0,0,1,76.286,187.025Z" transform="translate(7.326 30.275)"/>
  <path id="Path_51" data-name="Path 51" class="cls-2" d="M34.806,158.412c20.169-23.316,49.039-22.3,49.31-22.285h.408c.069,0,.6-.024,1.508,0a4.452,4.452,0,0,0,.155-8.9c-.919-.015-1.552,0-1.856.008-3.054-.106-33.693-.509-56,25.27a4.536,4.536,0,0,0,.36,6.282,4.25,4.25,0,0,0,6.114-.37Z" transform="translate(-0.712 31.384)"/>
  <path id="Path_52" data-name="Path 52" class="cls-2" d="M289.373,363.123a56.74,56.74,0,0,0-5.861,1.334,48.123,48.123,0,0,1-6.565.429c-4.834,0-8.483-2.392-11.154-7.311a21.323,21.323,0,0,0-18.684-11.34,13.742,13.742,0,0,0-13.54,13.91v4.741H218.78c-10.763.013-19.485,8.975-19.5,20.034v39.1a4.392,4.392,0,0,0,4.331,4.45H328.876a59.02,59.02,0,0,0,47.188-23.845,62.537,62.537,0,0,0,10.421-52.95c-7.088-27.627-16.594-52.638-28.254-74.343a48.16,48.16,0,0,1-5.733-21.016,66.345,66.345,0,0,0-12.954-37.573c-11.249-15.034-29.148-25.4-53.237-30.854l2.009-55.962a330.872,330.872,0,0,0-4.15-82.958,26.876,26.876,0,0,0-25.532-22.595c-60.074-1.307-81.171-22.286-81.446-22.569a4.26,4.26,0,0,0-3.772-1.275,4.343,4.343,0,0,0-3.2,2.42c-6.434,13.315-4.5,24.149-.515,31.465l-5.452-.328a4.269,4.269,0,0,0-3.354,1.336,4.523,4.523,0,0,0-1.215,3.479,27.164,27.164,0,0,0,15.846,22.924l1.909,19.224a97.966,97.966,0,0,0-14.493,33.312,42.2,42.2,0,0,0,7.685,34.987,39.826,39.826,0,0,0,31.415,15.632q1.548,0,3.114-.119l8.059-.623v25.147c-11,1.63-40.407,9.086-49.687,42.493q-2.29,8.52-5.4,16.77c-2.815,7.222-6.283,20.6-1.435,35.143a58.776,58.776,0,0,0-19.627,3.081h0a38.76,38.76,0,0,0-16.27,10.629,61.517,61.517,0,0,0-14.36,24.586,25.031,25.031,0,0,0,9.711,27.363c.495.347,1,.685,1.513,1.024a70.852,70.852,0,0,0-3.685,7.282,50.126,50.126,0,0,0,3.7,46.522,47.337,47.337,0,0,0,39.961,22.2h26.593a4.452,4.452,0,0,0,0-8.9h-26.6a38.741,38.741,0,0,1-32.812-18.327,40.612,40.612,0,0,1-2.934-37.871,61.54,61.54,0,0,1,3.255-6.426,156.661,156.661,0,0,0,25.835,10.727,20.471,20.471,0,0,0,6.265.982,21.248,21.248,0,0,0,19.244-12.525l13.5-29.615a4.553,4.553,0,0,0-.419-4.5,45.034,45.034,0,0,0-12.689-11.891l1.745-4.346a13.4,13.4,0,0,0,.921-4.436,41.653,41.653,0,0,0,9.68,1.173,36.457,36.457,0,0,0,18.4-4.91,4.516,4.516,0,0,0,1.663-6.057,4.27,4.27,0,0,0-5.895-1.709c-14.191,8.164-28.36.68-29.536.031a12.624,12.624,0,0,0-2.722-1.4,43.144,43.144,0,0,0-4.563-1.381c-5.988-12.732-3.588-24.981-.411-33.133q3.279-8.664,5.692-17.635c9.68-34.838,44.355-36.436,45.818-36.491h.012c27.612,0,60.128-23.013,60.354-23.167l-.521,14.648a4.426,4.426,0,0,0,3.5,4.531c53.206,10.68,62.2,42.667,62.828,60.783a57.287,57.287,0,0,0,6.805,25c11.316,21.063,20.555,45.391,27.459,72.311A53.442,53.442,0,0,1,369.2,399.2a50.431,50.431,0,0,1-40.324,20.372H207.944v-9.324h22.479a4.452,4.452,0,0,0,0-8.9H207.944V394.2h22.479a4.452,4.452,0,0,0,0-8.9H207.944v-.381a11,11,0,0,1,10.836-11.134H237.9a4.392,4.392,0,0,0,4.331-4.45v-9.191a5.1,5.1,0,0,1,1.456-3.559,4.827,4.827,0,0,1,3.482-1.45,12.67,12.67,0,0,1,11.051,6.774c4.218,7.77,10.691,11.877,18.719,11.877a48.644,48.644,0,0,0,14.5-2.011c7.292-1.193,17.787-1.353,22.755,4.623a4.358,4.358,0,0,0,6.105.493,4.47,4.47,0,0,0,.48-6.273c-3.96-4.767-9.488-7.02-15.087-7.908a30.59,30.59,0,0,0,2.753-3.664c14.011-21.9.566-61.029-3.418-71.425a58.411,58.411,0,0,0,8.449-16.573,4.482,4.482,0,0,0-2.681-5.659,4.3,4.3,0,0,0-5.507,2.755c-4,11.9-10.517,20.02-19.374,24.122-15.992,7.4-34.793-.364-35.1-.49a4.29,4.29,0,0,0-5.662,2.4,4.5,4.5,0,0,0,2.334,5.819,63.13,63.13,0,0,0,22.758,4.39,45.589,45.589,0,0,0,19.162-3.972,39.6,39.6,0,0,0,8.945-5.7c4.506,12.927,13.24,43.209,2.856,59.443a21.525,21.525,0,0,1-11.834,8.966ZM181.017,325.234,178.388,331a85.217,85.217,0,0,0-21.571-9.321,4.324,4.324,0,0,0-5.253,3.236,4.46,4.46,0,0,0,3.149,5.4,77.083,77.083,0,0,1,19.972,8.807l-3.314,7.268a91.982,91.982,0,0,0-22.319-9.777,4.321,4.321,0,0,0-5.3,3.162,4.464,4.464,0,0,0,3.077,5.442,83.611,83.611,0,0,1,20.655,9.178,12.414,12.414,0,0,1-13.926,4.793c-9.255-2.968-22.413-7.994-32.534-15.085a16.029,16.029,0,0,1-6.278-17.5,52.684,52.684,0,0,1,12.344-20.979,30.094,30.094,0,0,1,12.621-8.264h0c7.161-2.365,17.923-4.367,28.526-.492a4.029,4.029,0,0,1,2.318,2.214,4.315,4.315,0,0,1,.058,3.329L169.1,306.19a53.138,53.138,0,0,0-11.553-3.293,4.353,4.353,0,0,0-4.881,3.8,4.431,4.431,0,0,0,3.7,5.016,45.468,45.468,0,0,1,13.048,4.383c.037.019.078.025.115.044s.089.057.137.079a36.167,36.167,0,0,1,11.348,9.01Zm23.5-167.246a31.148,31.148,0,0,1-26.311-11.2,33.08,33.08,0,0,1-6.815-28.414,89.266,89.266,0,0,1,14.048-31.532,4.542,4.542,0,0,0,.788-3.044l-2.341-23.573a4.42,4.42,0,0,0-3.109-3.825A19.006,19.006,0,0,1,169.42,45.311l9.9.6a4.332,4.332,0,0,0,4.336-2.959,4.52,4.52,0,0,0-1.562-5.1c-.495-.367-10.857-8.352-6.174-23.729,9.608,6.893,34.209,20.108,82.532,21.159a18.116,18.116,0,0,1,17.187,15.257,320.871,320.871,0,0,1,3.671,85.141A19.57,19.57,0,0,1,261.446,153.6Zm68.223,11.6c-17.818,11.57-31.033,20.141-50.855,21.233V165.569l40.214-3.1a27.671,27.671,0,0,0,16.72-7.349L278.43,165.9q-2.915,1.873-5.7,3.683Z" transform="translate(17.861 -2.477)"/>
</svg>
